<?xml version="1.0" standalone="no"?><svg xmlns="http://www.w3.org/2000/svg" viewBox="0 0 1440 320"><path fill="#0099ff" fill-opacity="1" d="M0,64L26.7,64C53.3,64,107,64,160,106.7C213.3,149,267,235,320,234.7C373.3,235,427,149,480,117.3C533.3,85,587,107,640,149.3C693.3,192,747,256,800,261.3C853.3,267,907,213,960,208C1013.3,203,1067,245,1120,234.7C1173.3,224,1227,160,1280,117.3C1333.3,75,1387,53,1413,42.7L1440,32L1440,320L1413.3,320C1386.7,320,1333,320,1280,320C1226.7,320,1173,320,1120,320C1066.7,320,1013,320,960,320C906.7,320,853,320,800,320C746.7,320,693,320,640,320C586.7,320,533,320,480,320C426.7,320,373,320,320,320C266.7,320,213,320,160,320C106.7,320,53,320,27,320L0,320Z"></path></svg>